# xmcd
#
# Track frame offsets:
#       150
#       13432
#       26400
#       40525
#       57770
#       68565
#       83162
#       97112
#       110950
#       123252
#       145107
#       155287
#       170575
#       184845
#       197295
#       210437
#       226200
#       242750
#       257250
#       270062
#       284430
#
# Disc length: 3968 seconds
#
# Revision: 0
# Processed by: cddbd v1.4PL0 Copyright (c) Steve Scherf et al.
# Submitted via: WhereIsIt 3.25
#
DISCID=130f7e15
DTITLE=Graeme Connors - And When Morning Comes
DYEAR=1900
DGENRE=
TTITLE0=Playing On My Guitar
TTITLE1=Poet And The Poem
TTITLE2=Sweet Becky Walker
TTITLE3=Claudia
TTITLE4=Slippin' Away
TTITLE5=Music Is My Mistress
TTITLE6=Dakota
TTITLE7=I'd Rather Be Sorry
TTITLE8=Rock'n'Roll Time
TTITLE9=You're Gonna Love Yourself (In The Morning)
TTITLE10=Bronwyn
TTITLE11=She'll Wale Up On Her Own
TTITLE12=The Song Just Kept On Playin'
TTITLE13=I'm Called Myself
TTITLE14=When You Close Your Eyes
TTITLE15=All The Little Things We Didn't Say
TTITLE16=Can't Let You Go
TTITLE17=(Can't Tell You) Any Other Way
TTITLE18=Love Trapeze
TTITLE19=I Can't Stop
TTITLE20=When Soft Voices Die
EXTD=
EXTT0=
EXTT1=
EXTT2=
EXTT3=
EXTT4=
EXTT5=
EXTT6=
EXTT7=
EXTT8=
EXTT9=
EXTT10=
EXTT11=
EXTT12=
EXTT13=
EXTT14=
EXTT15=
EXTT16=
EXTT17=
EXTT18=
EXTT19=
EXTT20=
PLAYORDER=
